<?xml version="1.0" encoding="utf-8"?>
<!-- Generator: Adobe Illustrator 28.2.0, SVG Export Plug-In . SVG Version: 6.00 Build 0)  -->
<svg version="1.1" id="Layer_1" xmlns="http://www.w3.org/2000/svg" xmlns:xlink="http://www.w3.org/1999/xlink" x="0px" y="0px"
	 viewBox="0 0 79.5 79.5" style="enable-background:new 0 0 79.5 79.5;" xml:space="preserve">
<style type="text/css">
	.st0{fill:#F47226;stroke:#FFFFFF;stroke-miterlimit:10;}
	.st1{fill:#FFFFFF;}
</style>
<circle class="st0" cx="39.7" cy="39.7" r="39.2"/>
<path class="st1" d="M60.6,35.1c0-0.2-0.1-0.5-0.2-0.7c0-0.1,7.2-9.4,0.6-15.2c-6.7-5.8-14.4,1.8-14.5,1.8c-1.2-0.4-2.5-0.6-3.7-0.7
	c0,0,0,0,0,0c-2.5-0.4-6.1,0-6.1,0c-1.2,0.1-2.5,0.3-3.7,0.7c0,0-7.8-7.6-14.5-1.8C11.8,25.1,19,34.4,19,34.4
	c-0.1,0.2-0.1,0.4-0.2,0.7c-0.7,4-5.6,5.2-5.6,12.2c0,7.1,5.1,12.7,15.6,12.7h4.3c0,0,1.7,2.2,5.1,2.4c0,0,0.8,0.1,2.6,0
	c3.6,0,5.4-2.3,5.4-2.4h4.3c10.5,0,15.6-5.6,15.6-12.7C66.2,40.4,61.3,39.1,60.6,35.1z"/>
</svg>
