<?xml version="1.0" encoding="UTF-8" standalone="no"?>
<!-- Generator: Adobe Illustrator 26.0.3, SVG Export Plug-In . SVG Version: 6.00 Build 0)  -->

<svg
   xmlns:dc="http://purl.org/dc/elements/1.1/"
   xmlns:cc="http://creativecommons.org/ns#"
   xmlns:rdf="http://www.w3.org/1999/02/22-rdf-syntax-ns#"
   xmlns:svg="http://www.w3.org/2000/svg"
   xmlns="http://www.w3.org/2000/svg"
   xmlns:sodipodi="http://sodipodi.sourceforge.net/DTD/sodipodi-0.dtd"
   xmlns:inkscape="http://www.inkscape.org/namespaces/inkscape"
   version="1.0"
   id="katman_1"
   x="0px"
   y="0px"
   viewBox="0 0 461 461"
   xml:space="preserve"
   sodipodi:docname="coinbase.svg"
   width="461"
   height="461"
   inkscape:version="0.92.4 (5da689c313, 2019-01-14)"><metadata
   id="metadata13"><rdf:RDF><cc:Work
       rdf:about=""><dc:format>image/svg+xml</dc:format><dc:type
         rdf:resource="http://purl.org/dc/dcmitype/StillImage" /></cc:Work></rdf:RDF></metadata><defs
   id="defs11" /><sodipodi:namedview
   pagecolor="#ffffff"
   bordercolor="#666666"
   borderopacity="1"
   objecttolerance="10"
   gridtolerance="10"
   guidetolerance="10"
   inkscape:pageopacity="0"
   inkscape:pageshadow="2"
   inkscape:window-width="1748"
   inkscape:window-height="1044"
   id="namedview9"
   showgrid="false"
   inkscape:zoom="0.78666667"
   inkscape:cx="349.48494"
   inkscape:cy="196.99247"
   inkscape:window-x="1915"
   inkscape:window-y="2"
   inkscape:window-maximized="0"
   inkscape:current-layer="katman_1" />
<style
   type="text/css"
   id="style2">
	.st0{fill:#0052FF;}
	.st1{fill:#FFFFFF;}
</style>
<path
   class="st0"
   d="M 230.5,0 V 0 C 357.8,0 461,103.2 461,230.5 v 0 C 461,357.8 357.8,461 230.5,461 v 0 C 103.2,461 0,357.8 0,230.5 v 0 C 0,103.2 103.2,0 230.5,0 Z"
   id="path4"
   inkscape:connector-curvature="0"
   style="fill:#0052ff" />
<path
   class="st1"
   d="m 230.6,311.5 c -44.8,0 -81,-36.3 -81,-81 0,-44.7 36.3,-81 81,-81 40.1,0 73.4,29.2 79.8,67.5 H 392 C 385.1,133.8 315.5,68.4 230.5,68.4 141,68.4 68.4,141 68.4,230.5 c 0,89.5 72.6,162.1 162.1,162.1 85,0 154.6,-65.4 161.5,-148.6 h -81.7 c -6.4,38.3 -39.6,67.5 -79.7,67.5 z"
   id="path6"
   inkscape:connector-curvature="0"
   style="fill:#ffffff" />
</svg>