<?xml version="1.0" encoding="UTF-8"?>
<!-- Created with Inkscape (http://www.inkscape.org/) -->
<svg width="163.31mm" height="66.355mm" version="1.1" viewBox="0 0 163.31 66.355" xmlns="http://www.w3.org/2000/svg" xmlns:cc="http://creativecommons.org/ns#" xmlns:dc="http://purl.org/dc/elements/1.1/" xmlns:rdf="http://www.w3.org/1999/02/22-rdf-syntax-ns#"><script xmlns=""/>
 <metadata>
  <rdf:RDF>
   <cc:Work rdf:about="">
    <dc:format>image/svg+xml</dc:format>
    <dc:type rdf:resource="http://purl.org/dc/dcmitype/StillImage"/>
    <dc:title/>
   </cc:Work>
  </rdf:RDF>
 </metadata>
 <g transform="translate(47.408 -335.8)">
  <path d="m-45.262 401.64c-0.37443-0.29453-1.0156-1.2173-1.4247-2.0505-0.65769-1.3393-0.74092-1.7912-0.71768-3.8963 0.03036-2.7502 0.66213-4.9366 3.282-11.358 0.87256-2.1386 1.5865-4.0496 1.5865-4.2467s-0.47782-0.73673-1.0618-1.1993c-0.58401-0.46255-1.3736-1.373-1.7547-2.0232-0.59601-1.017-0.64956-1.2772-0.38315-1.862 0.3085-0.67708 0.31985-0.67921 2.9409-0.553 2.1894 0.10543 2.6922 0.0557 2.9946-0.29585 0.19983-0.2324 1.7046-3.1014 3.3438-6.3757 6.7325-13.447 14.487-27.062 16.828-29.546 1.2827-1.3612 2.0832-1.4694 3.0907-0.41758 1.1381 1.1882 1.5187 2.452 1.5187 5.0424 0 2.7206-0.63178 5.5018-1.9294 8.4933-0.47918 1.1047-3.3491 6.5146-6.3777 12.022-3.0285 5.5073-5.4047 10.113-5.2804 10.236s2.5478-0.19123 5.3854-0.69672c2.8377-0.50548 6.5286-1.123 8.2021-1.3722l3.0427-0.45308 2.855-5.424c7.9044-15.017 15.163-27.233 17.291-29.102 1.6508-1.4494 2.9379-0.83033 3.9227 1.8868 0.62799 1.7327 0.64025 4.4293 0.03077 6.7661-0.75865 2.9087-2.074 5.5727-7.6146 15.422-2.988 5.3115-5.6866 10.158-5.9968 10.769l-0.56409 1.1118 0.97199 0.74025c1.3519 1.0296 2.4654 2.8664 2.4654 4.0669 0 1.5079-0.33622 1.6345-3.779 1.4225l-3.015-0.18567-0.92506 1.687c-1.0033 1.8298-5.88 11.903-7.9146 16.348-1.3987 3.056-1.9542 3.8746-2.791 4.1123-0.81855 0.23249-2.0408-0.90378-2.9178-2.7125-0.63266-1.3048-0.72855-1.8136-0.70835-3.7581 0.02876-2.7688 0.75879-5.342 3.006-10.596 0.88356-2.0656 1.538-3.8242 1.4544-3.9078-0.08365-0.0837-2.9764 0.23075-6.4283 0.69869-3.4519 0.46793-7.2287 0.93771-8.3928 1.044l-2.1167 0.19317-1.2543 2.5135c-0.68987 1.3824-2.77 5.8292-4.6225 9.8816-1.8849 4.1234-3.6014 7.5314-3.8978 7.7391-0.74083 0.5189-1.5474 0.46229-2.3442-0.16452zm57.725-0.26156c-5.769-0.90745-9.7817-4.476-11.213-9.9723-0.62495-2.3993-0.51407-6.4165 0.2615-9.4738 1.268-4.9988 4.8534-11.384 8.5994-15.315 4.7296-4.9628 9.306-7.262 13.934-7.0005 1.6089 0.0909 2.0968 0.25328 3.814 1.2691 1.083 0.64067 2.763 1.9555 3.7334 2.9218 1.4685 1.4624 1.8399 2.0171 2.2153 3.3083 1.1697 4.0236-1.0683 9.7966-5.5476 14.31-1.7157 1.7289-2.6008 2.3813-4.4971 3.3148-2.3589 1.1613-2.3635 1.1623-5.2917 1.1623-2.634 0-3.1048-0.0757-4.6505-0.7476-0.94589-0.41118-1.9204-0.80998-2.1655-0.88624-0.73194-0.22765-1.1396 1.7271-1.1407 5.4703-0.0011 3.0911 0.04761 3.4063 0.7429 4.8223 0.9247 1.8831 1.9473 2.6457 3.7477 2.795 4.132 0.34266 9.9429-2.817 14.354-7.8048 1.9954-2.2563 5.364-6.8965 5.364-7.3887 0-0.73104 2.183-6.9158 3.7417-10.601 4.6621-11.022 11.901-22.668 19.231-30.942 3.1215-3.5232 4.5731-4.2152 6.6208-3.1563 1.1487 0.59399 2.7986 2.7634 3.4862 4.5839 0.80036 2.1189 0.6278 6.1298-0.39561 9.1948-1.7536 5.252-5.3747 11.488-9.6031 16.537-2.746 3.2792-7.5927 7.9236-10.727 10.28l-2.4941 1.8746-0.81152 2.3231c-2.4454 7.0001-3.04 11.281-1.9121 13.766 0.48544 1.0694 0.56609 1.1245 1.6478 1.1243 0.72025-1.3e-4 1.7679-0.29848 2.8564-0.81343 3.1399-1.4854 8.2712-7.3771 10.929-12.548 0.37392-0.7276 1.2343-3.0437 1.912-5.1468 4.0629-12.61 12.942-28.07 21.78-37.925 2.1736-2.4236 2.9456-3.0677 4.189-3.4952 1.4002-0.48137 2.194-0.18262 3.8108 1.4341 3.868 3.868 3.7437 9.3803-0.40328 17.88-3.8236 7.8373-10.886 16.161-18.469 21.767-1.9775 1.4621-2.0791 1.5909-2.8635 3.6325-1.8906 4.9205-2.9143 10.529-2.3654 12.96 0.39275 1.7397 0.88894 2.2532 2.1772 2.2532 3.026 0 7.4542-3.7848 11.454-9.7896 1.3894-2.086 1.765-2.8984 2.2079-4.7766 1.4108-5.9818 4.8012-12.229 8.9137-16.425 4.16-4.2441 7.8686-6.0475 12.424-6.0418 2.4479 3e-3 3.7409 0.47348 5.1636 1.8785 1.9668 1.9424 5.0482 5.5916 5.5466 6.5686 0.69004 1.3526 1.16 4.4909 0.93831 6.2654-0.13375 1.0706-0.0913 1.4435 0.17246 1.5153 1.6167 0.44004 1.9444 0.62355 2.0173 1.1298 0.0832 0.57711-0.78319 1.4434-2.2294 2.2292-0.598 0.32494-0.88938 0.81349-1.3607 2.2814-0.85712 2.6696-2.9948 6.9162-4.8316 9.5979-3.0897 4.5111-7.4292 8.157-11.034 9.2704-5.3128 1.641-10.899-0.58079-14.136-5.6221-0.44381-0.69123-0.86417-1.2568-0.93415-1.2568-0.07 0-0.92076 0.69589-1.8906 1.5464-2.2933 2.0111-3.8824 3.0696-6.2151 4.14-2.6184 1.2015-4.4048 1.5439-7.3759 1.414-2.1751-0.0951-2.7494-0.22596-4.2633-0.97127-1.8664-0.9188-3.0106-2.0788-3.8846-3.9382-0.29281-0.62293-0.6296-1.1326-0.74841-1.1326-0.11881 0-1.0409 0.66196-2.0492 1.471-3.9992 3.2092-7.5437 4.6144-11.639 4.6144-4.8279 0-7.8391-1.8752-9.2732-5.7748-0.25015-0.68018-0.54584-1.3414-0.65709-1.4695-0.11125-0.12802-0.89524 0.36008-1.7422 1.0847-2.192 1.8753-3.7448 2.8719-6.5314 4.1919-4.0064 1.8978-9.0676 2.7905-12.638 2.2289zm80.29-5.8712c1.5473-0.77536 4.108-3.5034 6.1068-6.5057 2.0646-3.1012 4.8191-8.3841 5.0706-9.7248 0.16272-0.86737 0.0773-0.99677-1.8399-2.7873-1.5844-1.4796-2.2188-2.3074-2.9929-3.9047-0.54027-1.1149-1.0293-2.0866-1.0867-2.1593-0.1817-0.23028-2.6818 2.644-4.0035 4.6026-3.5114 5.2036-5.8395 11.93-5.8395 16.872 0 4.0813 1.4158 5.1952 4.585 3.6071zm-75.791-15.43c3.7763-1.7579 9.6397-9.9263 9.6767-13.481 0.01675-1.6051-0.36675-1.772-2.0921-0.91025-3.0861 1.5413-8.6047 7.9414-11.08 12.85-0.52541 1.0418-0.61164 1.4237-0.3654 1.6181 0.96266 0.76003 2.1121 0.73709 3.861-0.077zm89.772-7.9527c0.59902-2.1238 0.62187-4.8124 0.0463-5.4484-0.57748-0.63811-1.2168-0.61189-1.8362 0.0753-0.72915 0.80894-0.66501 4.1255 0.11385 5.8862 0.33269 0.75212 0.70122 1.2293 0.89901 1.164 0.18436-0.0608 0.53403-0.81556 0.77704-1.6772zm-53.262-6.1968c2.6039-3.2222 4.6363-6.2933 6.4973-9.818 2.2112-4.188 3.4644-8.1479 2.456-7.761-0.4956 0.19017-3.1657 4.2752-6.4749 9.906-4.6107 7.8454-6.676 11.532-6.676 11.918 0 0.52586 1.8714-1.3668 4.1976-4.2453zm21.353 2.4474c5.0282-5.7338 9.1647-12.442 10.953-17.762 0.66392-1.975 0.5632-2.756-0.25941-2.0116-0.79873 0.72284-3.2268 4.5869-7.7368 12.313-3.9139 6.7047-5.2239 9.054-5.2239 9.369 0 0.47375 0.68101-0.0994 2.2668-1.9077z" fill="#feba08"/>
 </g>
</svg>